<svg xmlns="http://www.w3.org/2000/svg" width="21.229" height="16.021" viewBox="0 0 21.229 16.021">
  <path id="Untitled-1" d="M10.729,2.215H-4.544L-.234-2.095a1.329,1.329,0,0,0,.393-.943,1.329,1.329,0,0,0-.393-.943h0a1.334,1.334,0,0,0-.946-.394,1.334,1.334,0,0,0-.946.394L-8.658,2.533c-.033.028-.078.056-.112.089h0a1.362,1.362,0,0,0-.391.955,1.345,1.345,0,0,0,.391.955h0c.033.033.078.061.112.089l6.609,6.632a1.334,1.334,0,0,0,.946.394,1.334,1.334,0,0,0,.946-.394h.017a1.345,1.345,0,0,0,0-1.892L-4.6,4.894H10.729a1.334,1.334,0,0,0,1.34-1.334h0a1.334,1.334,0,0,0-1.34-1.345Z" transform="translate(9.16 4.375)" fill="#c3073f"/>
</svg>
